<svg id="visual" viewBox="0 0 960 540" width="960" height="540" xmlns="http://www.w3.org/2000/svg" xmlns:xlink="http://www.w3.org/1999/xlink" version="1.1"><rect x="0" y="0" width="960" height="540" fill="#f6f6f6"></rect><defs><linearGradient id="grad1_0" x1="43.8%" y1="100%" x2="100%" y2="0%"><stop offset="14.444444444444446%" stop-color="#ade1d4" stop-opacity="1"></stop><stop offset="85.55555555555554%" stop-color="#ade1d4" stop-opacity="1"></stop></linearGradient></defs><defs><linearGradient id="grad1_1" x1="43.8%" y1="100%" x2="100%" y2="0%"><stop offset="14.444444444444446%" stop-color="#ade1d4" stop-opacity="1"></stop><stop offset="85.55555555555554%" stop-color="#d2ece5" stop-opacity="1"></stop></linearGradient></defs><defs><linearGradient id="grad1_2" x1="43.8%" y1="100%" x2="100%" y2="0%"><stop offset="14.444444444444446%" stop-color="#f6f6f6" stop-opacity="1"></stop><stop offset="85.55555555555554%" stop-color="#d2ece5" stop-opacity="1"></stop></linearGradient></defs><defs><linearGradient id="grad2_0" x1="0%" y1="100%" x2="56.3%" y2="0%"><stop offset="14.444444444444446%" stop-color="#ade1d4" stop-opacity="1"></stop><stop offset="85.55555555555554%" stop-color="#ade1d4" stop-opacity="1"></stop></linearGradient></defs><defs><linearGradient id="grad2_1" x1="0%" y1="100%" x2="56.3%" y2="0%"><stop offset="14.444444444444446%" stop-color="#d2ece5" stop-opacity="1"></stop><stop offset="85.55555555555554%" stop-color="#ade1d4" stop-opacity="1"></stop></linearGradient></defs><defs><linearGradient id="grad2_2" x1="0%" y1="100%" x2="56.3%" y2="0%"><stop offset="14.444444444444446%" stop-color="#d2ece5" stop-opacity="1"></stop><stop offset="85.55555555555554%" stop-color="#f6f6f6" stop-opacity="1"></stop></linearGradient></defs><g transform="translate(960, 540)"><path d="M-459 0C-434.1 -50.4 -409.3 -100.9 -392.6 -162.6C-376 -224.4 -367.6 -297.5 -324.6 -324.6C-281.5 -351.6 -203.8 -332.6 -143.9 -347.4C-84 -362.1 -42 -410.6 0 -459L0 0Z" fill="#e4f1ed"></path><path d="M-306 0C-289.4 -33.6 -272.9 -67.2 -261.8 -108.4C-250.7 -149.6 -245.1 -198.3 -216.4 -216.4C-187.7 -234.4 -135.8 -221.8 -95.9 -231.6C-56 -241.4 -28 -273.7 0 -306L0 0Z" fill="#c0e6dc"></path><path d="M-153 0C-144.7 -16.8 -136.4 -33.6 -130.9 -54.2C-125.3 -74.8 -122.5 -99.2 -108.2 -108.2C-93.8 -117.2 -67.9 -110.9 -48 -115.8C-28 -120.7 -14 -136.9 0 -153L0 0Z" fill="#ade1d4"></path></g><g transform="translate(0, 0)"><path d="M459 0C431 50.9 403.1 101.8 385.3 159.6C367.4 217.4 359.8 282.2 324.6 324.6C289.4 366.9 226.7 386.9 168 405.6C109.3 424.3 54.7 441.6 0 459L0 0Z" fill="#e4f1ed"></path><path d="M306 0C287.4 33.9 268.7 67.8 256.8 106.4C245 144.9 239.8 188.1 216.4 216.4C192.9 244.6 151.1 257.9 112 270.4C72.9 282.8 36.4 294.4 0 306L0 0Z" fill="#c0e6dc"></path><path d="M153 0C143.7 17 134.4 33.9 128.4 53.2C122.5 72.5 119.9 94.1 108.2 108.2C96.5 122.3 75.6 129 56 135.2C36.4 141.4 18.2 147.2 0 153L0 0Z" fill="#ade1d4"></path></g></svg>