<svg id="visual" viewBox="0 0 960 540" width="960" height="540" xmlns="http://www.w3.org/2000/svg" xmlns:xlink="http://www.w3.org/1999/xlink" version="1.1"><rect x="0" y="0" width="960" height="540" fill="#f6f6f6"></rect><defs><linearGradient id="grad1_0" x1="43.8%" y1="0%" x2="100%" y2="100%"><stop offset="14.444444444444446%" stop-color="#ade1d4" stop-opacity="1"></stop><stop offset="85.55555555555554%" stop-color="#ade1d4" stop-opacity="1"></stop></linearGradient></defs><defs><linearGradient id="grad1_1" x1="43.8%" y1="0%" x2="100%" y2="100%"><stop offset="14.444444444444446%" stop-color="#ade1d4" stop-opacity="1"></stop><stop offset="85.55555555555554%" stop-color="#d2ece5" stop-opacity="1"></stop></linearGradient></defs><defs><linearGradient id="grad1_2" x1="43.8%" y1="0%" x2="100%" y2="100%"><stop offset="14.444444444444446%" stop-color="#f6f6f6" stop-opacity="1"></stop><stop offset="85.55555555555554%" stop-color="#d2ece5" stop-opacity="1"></stop></linearGradient></defs><defs><linearGradient id="grad2_0" x1="0%" y1="0%" x2="56.3%" y2="100%"><stop offset="14.444444444444446%" stop-color="#ade1d4" stop-opacity="1"></stop><stop offset="85.55555555555554%" stop-color="#ade1d4" stop-opacity="1"></stop></linearGradient></defs><defs><linearGradient id="grad2_1" x1="0%" y1="0%" x2="56.3%" y2="100%"><stop offset="14.444444444444446%" stop-color="#d2ece5" stop-opacity="1"></stop><stop offset="85.55555555555554%" stop-color="#ade1d4" stop-opacity="1"></stop></linearGradient></defs><defs><linearGradient id="grad2_2" x1="0%" y1="0%" x2="56.3%" y2="100%"><stop offset="14.444444444444446%" stop-color="#d2ece5" stop-opacity="1"></stop><stop offset="85.55555555555554%" stop-color="#f6f6f6" stop-opacity="1"></stop></linearGradient></defs><g transform="translate(960, 0)"><path d="M0 459C-50.4 434.1 -100.9 409.3 -162.6 392.6C-224.4 376 -297.5 367.6 -324.6 324.6C-351.6 281.5 -332.6 203.8 -347.4 143.9C-362.1 84 -410.6 42 -459 0L0 0Z" fill="#e4f1ed"></path><path d="M0 306C-33.6 289.4 -67.2 272.9 -108.4 261.8C-149.6 250.7 -198.3 245.1 -216.4 216.4C-234.4 187.7 -221.8 135.8 -231.6 95.9C-241.4 56 -273.7 28 -306 0L0 0Z" fill="#c0e6dc"></path><path d="M0 153C-16.8 144.7 -33.6 136.4 -54.2 130.9C-74.8 125.3 -99.2 122.5 -108.2 108.2C-117.2 93.8 -110.9 67.9 -115.8 48C-120.7 28 -136.9 14 -153 0L0 0Z" fill="#ade1d4"></path></g><g transform="translate(0, 540)"><path d="M0 -459C50.9 -431 101.8 -403.1 159.6 -385.3C217.4 -367.4 282.2 -359.8 324.6 -324.6C366.9 -289.4 386.9 -226.7 405.6 -168C424.3 -109.3 441.6 -54.7 459 0L0 0Z" fill="#e4f1ed"></path><path d="M0 -306C33.9 -287.4 67.8 -268.7 106.4 -256.8C144.9 -245 188.1 -239.8 216.4 -216.4C244.6 -192.9 257.9 -151.1 270.4 -112C282.8 -72.9 294.4 -36.4 306 0L0 0Z" fill="#c0e6dc"></path><path d="M0 -153C17 -143.7 33.9 -134.4 53.2 -128.4C72.5 -122.5 94.1 -119.9 108.2 -108.2C122.3 -96.5 129 -75.6 135.2 -56C141.4 -36.4 147.2 -18.2 153 0L0 0Z" fill="#ade1d4"></path></g></svg>