<svg id="visual" viewBox="0 0 900 600" width="900" height="600" xmlns="http://www.w3.org/2000/svg" xmlns:xlink="http://www.w3.org/1999/xlink" version="1.1"><path d="M0 193L10 200C20 207 40 221 60 223.2C80 225.3 100 215.7 120 220.3C140 225 160 244 180 256.3C200 268.7 220 274.3 240 275.5C260 276.7 280 273.3 300 275.5C320 277.7 340 285.3 360 277.5C380 269.7 400 246.3 420 229.5C440 212.7 460 202.3 480 206.7C500 211 520 230 540 233.2C560 236.3 580 223.7 600 212C620 200.3 640 189.7 660 193.8C680 198 700 217 720 232.5C740 248 760 260 780 266.2C800 272.3 820 272.7 840 275.2C860 277.7 880 282.3 890 284.7L900 287L900 0L890 0C880 0 860 0 840 0C820 0 800 0 780 0C760 0 740 0 720 0C700 0 680 0 660 0C640 0 620 0 600 0C580 0 560 0 540 0C520 0 500 0 480 0C460 0 440 0 420 0C400 0 380 0 360 0C340 0 320 0 300 0C280 0 260 0 240 0C220 0 200 0 180 0C160 0 140 0 120 0C100 0 80 0 60 0C40 0 20 0 10 0L0 0Z" fill="#247d6d"></path><path d="M0 160L10 158.2C20 156.3 40 152.7 60 155.7C80 158.7 100 168.3 120 182.5C140 196.7 160 215.3 180 212.7C200 210 220 186 240 178.3C260 170.7 280 179.3 300 187.5C320 195.7 340 203.3 360 200.2C380 197 400 183 420 187C440 191 460 213 480 215.8C500 218.7 520 202.3 540 190C560 177.7 580 169.3 600 176.2C620 183 640 205 660 215.8C680 226.7 700 226.3 720 229.2C740 232 760 238 780 229.7C800 221.3 820 198.7 840 182.3C860 166 880 156 890 151L900 146L900 0L890 0C880 0 860 0 840 0C820 0 800 0 780 0C760 0 740 0 720 0C700 0 680 0 660 0C640 0 620 0 600 0C580 0 560 0 540 0C520 0 500 0 480 0C460 0 440 0 420 0C400 0 380 0 360 0C340 0 320 0 300 0C280 0 260 0 240 0C220 0 200 0 180 0C160 0 140 0 120 0C100 0 80 0 60 0C40 0 20 0 10 0L0 0Z" fill="#2a8c7c"></path><path d="M0 115L10 126.8C20 138.7 40 162.3 60 170.2C80 178 100 170 120 170C140 170 160 178 180 178.7C200 179.3 220 172.7 240 164.3C260 156 280 146 300 138.7C320 131.3 340 126.7 360 136.2C380 145.7 400 169.3 420 176C440 182.7 460 172.3 480 165.3C500 158.3 520 154.7 540 152.5C560 150.3 580 149.7 600 155.2C620 160.7 640 172.3 660 176.3C680 180.3 700 176.7 720 166.3C740 156 760 139 780 136.7C800 134.3 820 146.7 840 155.2C860 163.7 880 168.3 890 170.7L900 173L900 0L890 0C880 0 860 0 840 0C820 0 800 0 780 0C760 0 740 0 720 0C700 0 680 0 660 0C640 0 620 0 600 0C580 0 560 0 540 0C520 0 500 0 480 0C460 0 440 0 420 0C400 0 380 0 360 0C340 0 320 0 300 0C280 0 260 0 240 0C220 0 200 0 180 0C160 0 140 0 120 0C100 0 80 0 60 0C40 0 20 0 10 0L0 0Z" fill="#309c8c"></path><path d="M0 123L10 114.7C20 106.3 40 89.7 60 87.3C80 85 100 97 120 107.3C140 117.7 160 126.3 180 127.7C200 129 220 123 240 122.7C260 122.3 280 127.7 300 122.7C320 117.7 340 102.3 360 103.5C380 104.7 400 122.3 420 126C440 129.7 460 119.3 480 109.7C500 100 520 91 540 86.5C560 82 580 82 600 84C620 86 640 90 660 95.8C680 101.7 700 109.3 720 114C740 118.7 760 120.3 780 113.2C800 106 820 90 840 89.8C860 89.7 880 105.3 890 113.2L900 121L900 0L890 0C880 0 860 0 840 0C820 0 800 0 780 0C760 0 740 0 720 0C700 0 680 0 660 0C640 0 620 0 600 0C580 0 560 0 540 0C520 0 500 0 480 0C460 0 440 0 420 0C400 0 380 0 360 0C340 0 320 0 300 0C280 0 260 0 240 0C220 0 200 0 180 0C160 0 140 0 120 0C100 0 80 0 60 0C40 0 20 0 10 0L0 0Z" fill="#36ac9c"></path><path d="M0 63L10 58.8C20 54.7 40 46.3 60 44.2C80 42 100 46 120 52.3C140 58.7 160 67.3 180 70.7C200 74 220 72 240 66.3C260 60.7 280 51.3 300 50.7C320 50 340 58 360 61.2C380 64.3 400 62.7 420 63.8C440 65 460 69 480 64.7C500 60.3 520 47.7 540 45.5C560 43.3 580 51.7 600 57.2C620 62.7 640 65.3 660 62.8C680 60.3 700 52.7 720 49.8C740 47 760 49 780 52.3C800 55.7 820 60.3 840 61.8C860 63.3 880 61.7 890 60.8L900 60L900 0L890 0C880 0 860 0 840 0C820 0 800 0 780 0C760 0 740 0 720 0C700 0 680 0 660 0C640 0 620 0 600 0C580 0 560 0 540 0C520 0 500 0 480 0C460 0 440 0 420 0C400 0 380 0 360 0C340 0 320 0 300 0C280 0 260 0 240 0C220 0 200 0 180 0C160 0 140 0 120 0C100 0 80 0 60 0C40 0 20 0 10 0L0 0Z" fill="#3bbdad"></path></svg>