<svg id="visual" viewBox="0 0 900 600" width="900" height="600" xmlns="http://www.w3.org/2000/svg" xmlns:xlink="http://www.w3.org/1999/xlink" version="1.1"><path d="M0 405L10 398C20 391 40 377 60 374.8C80 372.7 100 382.3 120 377.7C140 373 160 354 180 341.7C200 329.3 220 323.7 240 322.5C260 321.3 280 324.7 300 322.5C320 320.3 340 312.7 360 320.5C380 328.3 400 351.7 420 368.5C440 385.3 460 395.7 480 391.3C500 387 520 368 540 364.8C560 361.7 580 374.3 600 386C620 397.7 640 408.3 660 404.2C680 400 700 381 720 365.5C740 350 760 338 780 331.8C800 325.7 820 325.3 840 322.8C860 320.3 880 315.7 890 313.3L900 311L900 601L890 601C880 601 860 601 840 601C820 601 800 601 780 601C760 601 740 601 720 601C700 601 680 601 660 601C640 601 620 601 600 601C580 601 560 601 540 601C520 601 500 601 480 601C460 601 440 601 420 601C400 601 380 601 360 601C340 601 320 601 300 601C280 601 260 601 240 601C220 601 200 601 180 601C160 601 140 601 120 601C100 601 80 601 60 601C40 601 20 601 10 601L0 601Z" fill="#dcefeb"></path><path d="M0 438L10 439.8C20 441.7 40 445.3 60 442.3C80 439.3 100 429.7 120 415.5C140 401.3 160 382.7 180 385.3C200 388 220 412 240 419.7C260 427.3 280 418.7 300 410.5C320 402.3 340 394.7 360 397.8C380 401 400 415 420 411C440 407 460 385 480 382.2C500 379.3 520 395.7 540 408C560 420.3 580 428.7 600 421.8C620 415 640 393 660 382.2C680 371.3 700 371.7 720 368.8C740 366 760 360 780 368.3C800 376.7 820 399.3 840 415.7C860 432 880 442 890 447L900 452L900 601L890 601C880 601 860 601 840 601C820 601 800 601 780 601C760 601 740 601 720 601C700 601 680 601 660 601C640 601 620 601 600 601C580 601 560 601 540 601C520 601 500 601 480 601C460 601 440 601 420 601C400 601 380 601 360 601C340 601 320 601 300 601C280 601 260 601 240 601C220 601 200 601 180 601C160 601 140 601 120 601C100 601 80 601 60 601C40 601 20 601 10 601L0 601Z" fill="#bae3db"></path><path d="M0 483L10 471.2C20 459.3 40 435.7 60 427.8C80 420 100 428 120 428C140 428 160 420 180 419.3C200 418.7 220 425.3 240 433.7C260 442 280 452 300 459.3C320 466.7 340 471.3 360 461.8C380 452.3 400 428.7 420 422C440 415.3 460 425.7 480 432.7C500 439.7 520 443.3 540 445.5C560 447.7 580 448.3 600 442.8C620 437.3 640 425.7 660 421.7C680 417.7 700 421.3 720 431.7C740 442 760 459 780 461.3C800 463.7 820 451.3 840 442.8C860 434.3 880 429.7 890 427.3L900 425L900 601L890 601C880 601 860 601 840 601C820 601 800 601 780 601C760 601 740 601 720 601C700 601 680 601 660 601C640 601 620 601 600 601C580 601 560 601 540 601C520 601 500 601 480 601C460 601 440 601 420 601C400 601 380 601 360 601C340 601 320 601 300 601C280 601 260 601 240 601C220 601 200 601 180 601C160 601 140 601 120 601C100 601 80 601 60 601C40 601 20 601 10 601L0 601Z" fill="#96d6cb"></path><path d="M0 475L10 483.3C20 491.7 40 508.3 60 510.7C80 513 100 501 120 490.7C140 480.3 160 471.7 180 470.3C200 469 220 475 240 475.3C260 475.7 280 470.3 300 475.3C320 480.3 340 495.7 360 494.5C380 493.3 400 475.7 420 472C440 468.3 460 478.7 480 488.3C500 498 520 507 540 511.5C560 516 580 516 600 514C620 512 640 508 660 502.2C680 496.3 700 488.7 720 484C740 479.3 760 477.7 780 484.8C800 492 820 508 840 508.2C860 508.3 880 492.7 890 484.8L900 477L900 601L890 601C880 601 860 601 840 601C820 601 800 601 780 601C760 601 740 601 720 601C700 601 680 601 660 601C640 601 620 601 600 601C580 601 560 601 540 601C520 601 500 601 480 601C460 601 440 601 420 601C400 601 380 601 360 601C340 601 320 601 300 601C280 601 260 601 240 601C220 601 200 601 180 601C160 601 140 601 120 601C100 601 80 601 60 601C40 601 20 601 10 601L0 601Z" fill="#6ecabc"></path><path d="M0 535L10 539.2C20 543.3 40 551.7 60 553.8C80 556 100 552 120 545.7C140 539.3 160 530.7 180 527.3C200 524 220 526 240 531.7C260 537.3 280 546.7 300 547.3C320 548 340 540 360 536.8C380 533.7 400 535.3 420 534.2C440 533 460 529 480 533.3C500 537.7 520 550.3 540 552.5C560 554.7 580 546.3 600 540.8C620 535.3 640 532.7 660 535.2C680 537.7 700 545.3 720 548.2C740 551 760 549 780 545.7C800 542.3 820 537.7 840 536.2C860 534.7 880 536.3 890 537.2L900 538L900 601L890 601C880 601 860 601 840 601C820 601 800 601 780 601C760 601 740 601 720 601C700 601 680 601 660 601C640 601 620 601 600 601C580 601 560 601 540 601C520 601 500 601 480 601C460 601 440 601 420 601C400 601 380 601 360 601C340 601 320 601 300 601C280 601 260 601 240 601C220 601 200 601 180 601C160 601 140 601 120 601C100 601 80 601 60 601C40 601 20 601 10 601L0 601Z" fill="#3bbdad"></path></svg>