<svg
                className="absolute bottom-0"
                xmlns="http://www.w3.org/2000/svg"
                viewBox="0 0 1440 320"
              >
                <path
                  fill="#fff"
                  d="M0,288L48,256C96,224,192,160,288,160C384,160,480,224,576,213.3C672,203,768,117,864,85.3C960,53,1056,75,1152,69.3C1248,64,1344,32,1392,16L1440,0L1440,320L1392,320C1344,320,1248,320,1152,320C1056,320,960,320,864,320C768,320,672,320,576,320C480,320,384,320,288,320C192,320,96,320,48,320L0,320Z"
                ></path>
              </svg>